<svg id="Layer_1" data-name="Layer 1" xmlns="http://www.w3.org/2000/svg" viewBox="0 0 693.176 718.512">
  <defs>
    <style>
      .cls-1 {
        fill: #29abe2;
      }

      .cls-2 {
        fill: #647f91;
      }

      .cls-3 {
        fill: #6e96b5;
      }

      .cls-4 {
        fill: #859eb2;
      }

      .cls-5 {
        fill: #444522;
      }

      .cls-6 {
        fill: #675936;
      }

      .cls-7 {
        fill: #2d311e;
      }

      .cls-8 {
        fill: #75613b;
      }

      .cls-9 {
        fill: #554c2b;
      }

      .cls-10 {
        fill: #91b5c8;
      }

      .cls-11 {
        fill: #ccc;
      }
    </style>
  </defs>
  <title>Logo</title>
  <g>
    <g>
      <path class="cls-1" d="M1290.692,546.523c0-201.986-151.639-365.728-338.695-365.728S613.3,344.537,613.3,546.523" transform="translate(-613.302 -180.795)"/>
      <path class="cls-2" d="M613.3,539.858c0,198.518,151.707,359.449,338.848,359.449S1291,738.376,1291,539.858" transform="translate(-613.302 -180.795)"/>
      <path class="cls-3" d="M851.188,457.688c8.177-6.814,18.423-10.028,27.66-15,4.447.716,7.149-2.54,10.672-4.084,15.57-6.822,28.778-17.588,44.254-24.426,3.882-1.715,4.71-7.464,10.139-6.68,1.557,2.18-.393,6.365,4.352,6.77,4.265.364,6.466-.966,8.361-5.1,2.581-5.636,10.649-6.624,14.237-1.874,2.7,3.571,4.492,6.437,9.109,3.023,3.593-2.657,8.51,3.453,11.7-1.718,2.106-3.417,4.547-2.714,6.964-.4,5.531,5.3,12.274.183,18.487,1.794,2.3.6,7.261-4,7.415-8.849.064-2-2.86-4.6.043-5.849,2.391-1.029,4.558,1.354,6.537,3.019,7.738,6.512,15.934,7.981,22.975,4.326,6.178,4.17,13.953,3.83,20.534,6.861,8.32,8.246,19.924,12.192,28.1,20.84,6.6,6.979,14.488,12.807,21.8,19.147-3.464,4.854-7.794,7.867-13.764,4.3-7.625-4.558-14.952-9.587-22.408-14.413-.253-1.723.266-5.142-2.4-3.957-4.288,1.908-4.813,6.489-4.344,10.748.392,3.562,2.275,4.186,5.078,1.766,3.727.673,4.418,2.273,1.6,4.944-9.085.269-10.621,1.724-6.173,8.5,3.186,4.856,1.09,8.85,1.062,13.256-3.475,3.839-7.534,3.982-11.32.9-3.983-3.238-9.485-6-6.665-12.807,1.9-4.58-.2-7.693-3.825-10.8-1.974-1.7-7.233-2.742-3.915-7.419,1.915.117,4.121-.3,4.948,2.1.931,2.706,2.749,3.522,5.111,1.931,2.015-1.357,4.707-2.85,4.571-5.459-.142-2.736-3.459-2.244-5.355-3.021-1.722-.706-3.847-.483-5.794-.67-.282-2.434-.1-7.182-.827-6.947-5.76,1.852-8.176-4.981-13.05-4.2-1.115.177-2.875,1.747-2.853,2.642.217,8.923-6.153,14.547-10.787,21.039-1.363,1.909-2.869,4.061.108,5.562,10.6,5.345,10.035,14.263,8.348,23.621-1.742-.441-3.5-2.461-5.21.058-7.506,5.133-14.037,11.778-23.137,14.438a6.555,6.555,0,0,0-4.943,5.044c-1.1,3.959-5.379,4.613-8.152,6.8-1.3,1.027-3.6,2.17-5.534.965-.67-.418-.943-2.018-.792-2.989.4-2.594,2.728-2.244,4.668-2.6,5.7-1.037,9.682-2.9,4.609-9.218-1.692-2.106-1.945-5.839-.466-7.085,8.3-7,.575-10.914-3.023-15.061-2.854-3.289-7.06-5.456-10.59-8.213-1.971-1.54-3.285-3.154-.337-5.229,7.445-5.241,15.935-4.1,21.85,3.049,2.236,2.7,4.552,5.342,6.944,8.142,2.688-2.778,1.83-5.173,1.2-7.541-3.778-14.153-16.252-19.551-27.734-25.917-2.385-1.322-3.807.461-4.867,2.093-1.363,2.1.195,2.791,2.013,3.442s4.729,2.656,2.383,3.825c-7.791,3.884-6.58,12.931-12.114,17.975-5.6,5.108-9.308,12.836-19.182,11.174A13.2,13.2,0,0,0,944.038,484.7c-.6,2.893-.2,6.129-4.8,7.6-1.323-12.9-11.188-16.95-22.56-19.885,2.167,2.715-6.2,3.663-.789,7.82,4.37,3.358.24,6.718-1.689,9.254-2.1,2.761-6.128,2.526-8.46.552-3-2.539-.314-5.6,1.03-8.253.5-.983,1.707-1.77,1.855-2.752.512-3.394-.046-6.918-3.143-8.781-3.31-1.992-4.689.691-6.412,3.262-2.729,4.074-9.105,3.665-9.585.539-2.028-13.215-6.653-2.951-10.269-1.608-2.663.989-5.248,2.347-8,2.892-6.648,1.315-12.066,4.929-17.252,8.7-3.871,2.819-6.415,6.567-.361,10.29,6.355,3.908,4.5,6.856-1.477,8.79C841.09,506.7,833.6,513,833.531,526.269c9.8-3.712,19.019-3.179,27.2,4.118,1.492,1.331,4.94.593,7.484.809-1.565,5.489-5.211,5.234-9.165,2.822-2.71-1.653-5.223-3.581-8.623-2.818-7.515,1.686-15.017,3.434-22.487,5.3-2.717.678-5.617,1.313-7.933,2.737-7.86,4.83-13.676,2.917-15.377-5.531-1.053-5.23-3.206-7.842-9.579-7.865-14.328-.053-28.393,1.609-42.43,3.951-1.644.274-4.308,1.793-4.75.579-3.338-9.168-17.136,2.972-18.916-8.889,0-.02-1.848-.125-2.278.318-2.1,2.167-3.537,1.889-5.4-.457-2.37-2.984-5.531-2.313-8.511-.739-3.191,1.686-6.326,3.472-9.486,5.214-2.839-5.955-1.3-11.9.057-17.84,1.426-6.244,12.1-10.416,16.158-5.585,3.352,3.995,6.481,4.182,10.236,2.894,4.6-1.577,4.657-5.748,4.551-9.785-.209-7.938,3.324-12.686,11.991-12.868.2,1.06.188,2.3,1.653,2.478.293.035.992-.645.956-.929-.179-1.423-1.456-1.419-2.549-1.607a18.848,18.848,0,0,1,.264-3.3c1.379-5.4,6.106-6.8,10.543-6.3,3.323.377,8.658-.534,9.622,4.7,1.1,5.977-5.528,5.211-8.162,8-1.03,1.091-3.035,1.6-4.673,1.809-4.336.555-5.963,3.23-5.473,6.915.532,4,3.555,5.259,7.512,4.936,2.264-.185,4.565.078,6.836-.065,7.286-.46,16.131,6.065,17.834,13.247-9.548,5.138-20.914,6.119-31.2,12.328,22.1.684,44.845-4.6,50.727-14.724-3.533-1.581-7.294-.349-10.881-.9a4.327,4.327,0,0,1,4.462-4.249c8.157.589,11.427-6.553,17.178-9.68,1.817-.988,2.579-4.611-.064-3.747-6.131,2-11.226-2.158-16.772-1.2-8.552,1.484-13.023-5.051-19.384-8.07,6.7-.846,12.717-2.483,19.447-1.894,7.277.638,14.979-2.665,17.522-11.256q2.432-.03,4.865-.058c2.541,4.868,4.7,9.2-4.417,9.223-3.938.01-6.312,3.46-8.533,6.811,3.573,1.266,5.923.979,8.527-1.072,2.346-1.849,6.825-3.522,8.516-1.871,3.59,3.5,6.412,4,10.11,1.011,3.205-2.59,7.687-2.96,10.283-7.006,2.458-3.83,3.651-6.392-1.366-8.324C843.151,463.371,851.139,464.923,851.188,457.688Zm220.553,2.228c.621,3.255.156,6.329,3.785,7.637a2.377,2.377,0,0,0,1.96-1.174C1078.184,462.608,1075.962,460.919,1071.74,459.917ZM813.06,502.73c-.917-.635-1.478-1.328-2.061-1.347-.661-.021-1.793.439-1.928.906-.387,1.331.71,1.858,1.848,1.759C811.54,503.995,812.107,503.345,813.06,502.73Z" transform="translate(-613.302 -180.795)"/>
      <path class="cls-4" d="M1054.091,402.638c-7.042,3.655-15.237,2.186-22.975-4.326-1.979-1.665-4.145-4.049-6.537-3.019-2.9,1.249.02,3.845-.043,5.849-.154,4.852-5.115,9.445-7.415,8.849-6.213-1.611-12.957,3.5-18.487-1.794-2.417-2.315-4.857-3.017-6.964.4-3.188,5.171-8.1-.939-11.7,1.718-4.617,3.414-6.412.548-9.109-3.023-3.587-4.75-11.656-3.762-14.237,1.874-1.9,4.139-4.1,5.468-8.361,5.1-4.745-.4-2.795-4.59-4.352-6.77,5.6-5.559,11.03-11.371,18.144-15.135a29.947,29.947,0,0,0,11.25-9.685c5.569.935,8.44-3.979,12.735-5.826,11.466-4.928,22.389-2.269,32.381,2.2,8.54,3.817,16.164,10.059,23.258,16.241C1045.522,398.64,1051.874,397.286,1054.091,402.638Z" transform="translate(-613.302 -180.795)"/>
      <path class="cls-4" d="M851.188,457.688c-.049,7.234-8.037,5.683-11.529,10.16,5.017,1.933,3.824,4.495,1.366,8.324-2.6,4.046-7.078,4.415-10.283,7.006-3.7,2.989-6.52,2.494-10.11-1.011-1.691-1.651-6.17.022-8.516,1.871-2.6,2.052-4.954,2.339-8.527,1.072,2.221-3.351,4.594-6.8,8.533-6.811,9.115-.023,6.958-4.355,4.417-9.223,2.777-5.159,8.424-3.93,12.634-4.442C837.107,463.669,843.724,459.56,851.188,457.688Z" transform="translate(-613.302 -180.795)"/>
      <path class="cls-4" d="M1036.67,481.159c.352,3.055,2.3,6.358,4.9,6.088,11.917-1.24,15.152,8.713,21.4,14.751,1.864,1.8,3.3,3.489,4.869-.153.981-2.281,2.951-3.732,5.362-2.982,1.926.6,1.775,3.067.951,4.311-1.314,1.982.106,6.465-4.57,5.571-3.048-.583-5.968.693-9.181-.428-3.84-1.339-7.89-.2-11.386,2.143-2.653,1.774-3.012,2.785-.258,5.491a93.51,93.51,0,0,0,14.873,12.189c-7.44.734-13.665-4.005-21.067-2.644-9.61,1.767-18.719-2.532-28.12-3.7-11.4-1.417-11.3-2.17-13.009,9-3.277-2.657-8.132-2.148-7.3-9.125.3-2.531-8.417-4.935-13.689-5.389-9.535-.821-18.5,2.629-27.739,4.018-4.2.632-8.321,1.8-12.527,2.4-2.637.377-5.451-.078-6.054-3.225-.667-3.483,2.472-2.913,4.514-3.485a29.9,29.9,0,0,0,7.826-3.173,32.421,32.421,0,0,0-15.448.17,3.175,3.175,0,0,0-1.4.742c3.534,11.787-10.184,7.764-13.6,13.73-1.842,3.219-7.092,5.146-12.048,1.384-2.99-2.27-7.056-1.161-10.7.077a53.183,53.183,0,0,1-25.051,2.277c-2.546-.216-5.993.522-7.485-.809-8.183-7.3-17.405-7.83-27.2-4.118C833.6,513,841.09,506.7,852.122,503.13c5.982-1.934,7.832-4.882,1.477-8.79-6.055-3.723-3.51-7.471.361-10.29,5.185-3.775,10.6-7.389,17.252-8.7,2.756-.545,5.341-1.9,8-2.892,3.615-1.343,8.241-11.607,10.269,1.608.48,3.127,6.857,3.535,9.585-.539,1.722-2.571,3.1-5.253,6.412-3.262,3.1,1.863,3.655,5.387,3.143,8.781-.148.981-1.357,1.768-1.855,2.752-1.344,2.657-4.03,5.715-1.03,8.253,2.333,1.974,6.361,2.209,8.46-.552,1.929-2.536,6.06-5.9,1.689-9.254-5.41-4.157,2.956-5.105.789-7.82,11.372,2.935,21.237,6.986,22.56,19.885,4.6-1.472,4.205-4.709,4.8-7.6a13.2,13.2,0,0,1,15.429-10.446c9.874,1.661,13.578-6.066,19.182-11.174,5.533-5.044,4.323-14.09,12.114-17.975,2.345-1.169-.563-3.174-2.383-3.825s-3.376-1.344-2.013-3.442c1.06-1.632,2.481-3.416,4.867-2.093,11.482,6.365,23.956,11.764,27.734,25.917.632,2.367,1.489,4.763-1.2,7.541-2.393-2.8-4.708-5.44-6.944-8.142-5.916-7.148-14.4-8.291-21.85-3.049-2.947,2.075-1.634,3.689.337,5.229,3.529,2.757,7.736,4.924,10.59,8.213,3.6,4.147,11.327,8.066,3.023,15.061-1.479,1.246-1.226,4.979.466,7.085,5.073,6.315,1.1,8.18-4.609,9.218-1.94.353-4.264,0-4.668,2.6-.151.971.121,2.571.792,2.989,1.935,1.205,4.232.062,5.534-.965,2.773-2.187,7.056-2.841,8.152-6.8a6.555,6.555,0,0,1,4.943-5.044C1022.633,492.937,1029.164,486.292,1036.67,481.159Z" transform="translate(-613.302 -180.795)"/>
      <path class="cls-2" d="M1088.3,452.871c3.806,4.477,9.828,2.543,14.657,4.7a69.268,69.268,0,0,1,16.563,9.8c3.831,3.2,6.726,7.42,12.538,7.952a4.208,4.208,0,0,1,3.741,4.824c-.433,2.226-2.671,2.35-4.652,2.887-5.512,1.5-12.147-.065-16.207,5.612-.882,1.232-3.228,1.149-3.845.142-2.97-4.846-10.217-4.19-12.5-10.69-2.6-7.382-9.888-3.577-15.4-3.466.027-4.406,2.124-8.4-1.062-13.255C1077.675,454.595,1079.211,453.14,1088.3,452.871Z" transform="translate(-613.302 -180.795)"/>
      <path class="cls-2" d="M780.64,512.52c3.684.892,5.954-1.719,8.645-3.293,3.588.548,7.348-.684,10.881.9-5.883,10.124-28.626,15.409-50.727,14.724C759.727,518.639,771.092,517.658,780.64,512.52Z" transform="translate(-613.302 -180.795)"/>
      <path class="cls-2" d="M1057.461,444.507c-.625-2.85-1.382-5.786,3.48-5.115,1.948.186,4.073-.037,5.795.669,1.9.777,5.213.284,5.355,3.021.136,2.608-2.556,4.1-4.571,5.459-2.362,1.591-4.179.775-5.111-1.931C1061.581,444.205,1059.376,444.624,1057.461,444.507Z" transform="translate(-613.302 -180.795)"/>
      <path class="cls-2" d="M1088.359,439.371c-2.882,2.425-1.424,5.645-1.661,8.555-2.8,2.421-4.686,1.8-5.078-1.765-.469-4.259.056-8.839,4.344-10.748C1088.625,434.229,1088.106,437.648,1088.359,439.371Z" transform="translate(-613.302 -180.795)"/>
      <path class="cls-2" d="M1071.74,459.917c4.222,1,6.444,2.692,5.745,6.463a2.377,2.377,0,0,1-1.96,1.174C1071.9,466.245,1072.361,463.172,1071.74,459.917Z" transform="translate(-613.302 -180.795)"/>
      <path class="cls-4" d="M813.06,502.73c-.953.614-1.52,1.264-2.142,1.319-1.138.1-2.234-.428-1.848-1.759.136-.468,1.268-.928,1.928-.906C811.583,501.4,812.143,502.1,813.06,502.73Z" transform="translate(-613.302 -180.795)"/>
      <path class="cls-4" d="M746.337,482.573c1.093.188,2.37.185,2.549,1.607.036.285-.664.964-.956.929-1.465-.175-1.457-1.418-1.653-2.478Z" transform="translate(-613.302 -180.795)"/>
      <path class="cls-2" d="M1237.812,514.833l-.683-.777.785.676Z" transform="translate(-613.302 -180.795)"/>
      <path class="cls-3" d="M1195.543,583.84c-4.585,6.616-10.871,8.486-18.271,7.244-1.54-.258-3.646-.847-3.716-2.822-.073-2.076,2.121-2.553,3.626-2.865C1183.2,584.152,1189.442,585.874,1195.543,583.84Z" transform="translate(-613.302 -180.795)"/>
      <path class="cls-3" d="M742.18,531.48c-.486.182-1.086.616-1.422.471s-.412-.868-.6-1.337c.485-.181,1.082-.613,1.424-.471S741.991,531.009,742.18,531.48Z" transform="translate(-613.302 -180.795)"/>
      <path class="cls-2" d="M667.018,594.484c-.144,2.64.163,6.622-3.717,5.486-2.315-.678-5.689-3.921-3.481-7.89a14.609,14.609,0,0,0,2.107-9.339l.141-.116c4.807.477,10.28-1.386,13.778,3.692l1.671,4.625c-1.733,6.047-6.812,2.352-10.286,3.334q-.418-.3-.835-.6Z" transform="translate(-613.302 -180.795)"/>
      <path class="cls-2" d="M639.067,596.756c-6.008.323-6.027-4.976-7.16-8.773-.805-2.7,2-3.308,3.833-2.233,3.812,2.234,10.866-1.632,11.855,5.039C648.362,595.959,644.611,597.915,639.067,596.756Z" transform="translate(-613.302 -180.795)"/>
      <path class="cls-2" d="M677.517,590.942l-1.671-4.625c.565-.056,1.226-.332,1.676-.139,3.668,1.568,9.419-4.74,10.7,1.14C688.813,590.016,681.517,590.339,677.517,590.942Z" transform="translate(-613.302 -180.795)"/>
      <path class="cls-2" d="M647.877,582.417c-.248,1.841-1.694,1.915-3.093,1.865-1.352-.048-3.157-.035-2.987-1.9.13-1.423,1.566-2.212,3.081-2.265A2.85,2.85,0,0,1,647.877,582.417Z" transform="translate(-613.302 -180.795)"/>
      <path class="cls-2" d="M680.875,581.036c.353-1.594.753-3.188,2.945-3.037.364.025,1.036.647.982.83-.555,1.886-2.319,1.925-3.886,2.246Z" transform="translate(-613.302 -180.795)"/>
      <path class="cls-2" d="M665.765,575.234l-1.526.726a10.637,10.637,0,0,1-.349-2.241c.019-.432.493-.845.762-1.267Z" transform="translate(-613.302 -180.795)"/>
      <path class="cls-5" d="M661.927,582.741c-.409-.593-.824-1.182-1.2-1.794a6.872,6.872,0,0,1,.594-.424q.372,1.051.744,2.1Z" transform="translate(-613.302 -180.795)"/>
      <path class="cls-6" d="M680.916,581.075l-.717.7.676-.741Z" transform="translate(-613.302 -180.795)"/>
      <path class="cls-7" d="M667.018,594.484l-.622-.812q.417.3.835.6Z" transform="translate(-613.302 -180.795)"/>
      <path class="cls-2" d="M632.79,577.655a2.6,2.6,0,0,1-.59-.331c-.086-.082-.047-.289-.065-.439l.61.812Z" transform="translate(-613.302 -180.795)"/>
      <path class="cls-8" d="M935.1,679.876l-1.662,1.588Z" transform="translate(-613.302 -180.795)"/>
      <path class="cls-9" d="M682.664,679.724l-.944.656q.336-.461.671-.923Z" transform="translate(-613.302 -180.795)"/>
      <path class="cls-5" d="M1306.449,681.833l-.729-.413.758.385Z" transform="translate(-613.302 -180.795)"/>
      <path class="cls-7" d="M1296.464,677.218c.062.211.23.56.166.606a2.364,2.364,0,0,1-.734.24c-.061-.212-.23-.562-.164-.611A2.287,2.287,0,0,1,1296.464,677.218Z" transform="translate(-613.302 -180.795)"/>
      <path class="cls-2" d="M652.863,568.574c-2.755-1.183-5.816-1.693-8.747-2.49-5.144,5.835-11.416,4.426-17.4,2.04l-.05-.02q-1.527,4.091-2.948,8.23c4.42,1.444,7.578,5.944,12.763,6.4-.843-2.287-3.831-2.622-3.691-5.056,3.867-1.317,9.312,2.549,11.776-3.382,1.014-3.357,2.094-6.448,5.557-1.544,1.136,1.609,2.784,2.16,4.1.564C655.759,571.451,654.724,569.373,652.863,568.574ZM632.2,577.324c-.086-.082-.047-.289-.064-.439l.536.713A1.764,1.764,0,0,1,632.2,577.324Z" transform="translate(-613.302 -180.795)"/>
      <path class="cls-4" d="M810.861,491.55c-6.131,2-11.226-2.158-16.772-1.2-8.552,1.484-13.023-5.051-19.384-8.07,6.7-.846,12.717-2.483,19.447-1.894,7.277.637,14.979-2.665,17.521-11.255-10.484-4.14-21.369.272-32.2-1.542-9.029-1.512-18.746.84-28.036-1.039a9.943,9.943,0,0,0-7.292,1.306c-4.909,2.746-9.618,5.858-14.646,8.372-11.112,5.556-20.279,14.04-31.228,19.7-15.505,8.021-31.949,14.239-47.714,21.766q-6.088,10.469-11.42,21.383a25.709,25.709,0,0,1,5.867.559c4.653,1.06,10.45-2.2,16.444-1.253,3.818.6,9.77.789,12.443-3.416,3-4.714,8.087-5.2,11.811-4.768,6.827.783,12.1-1.558,17.586-4.39-2.839-5.955-1.3-11.9.057-17.84,1.426-6.244,12.1-10.416,16.158-5.585,3.353,3.994,6.481,4.182,10.236,2.894,4.6-1.577,4.657-5.748,4.551-9.785-.209-7.938,3.324-12.685,11.991-12.868l.06-.058a18.834,18.834,0,0,1,.264-3.3c1.379-5.4,6.106-6.8,10.543-6.3,3.323.377,8.658-.535,9.622,4.7,1.1,5.977-5.529,5.211-8.162,8-1.03,1.091-3.036,1.6-4.673,1.809-4.336.555-5.963,3.231-5.473,6.915.532,4,3.555,5.259,7.512,4.936,2.264-.185,4.565.078,6.836-.065,7.286-.46,16.131,6.065,17.834,13.247,3.684.892,5.954-1.719,8.645-3.293a4.328,4.328,0,0,1,4.463-4.25c8.157.59,11.426-6.553,17.177-9.68C812.742,494.309,813.5,490.686,810.861,491.55Z" transform="translate(-613.302 -180.795)"/>
      <path class="cls-4" d="M1254.315,510.107a12.931,12.931,0,0,1-7.861-5.3c-6.512-1.688-9.68-8.675-16.385-9.93-13.624-2.549-25.738-8.808-37.53-15.292-14.241-7.83-29.939-12.243-45.05-17.271-7.709-2.566-12.907-5.422-17.441-11.116-1.4-1.755-3.536-1.568-5.517-1.711-3.463,4.854-7.794,7.867-13.763,4.3-7.626-4.558-14.952-9.587-22.408-14.413-2.882,2.425-1.424,5.645-1.661,8.556,3.728.674,4.418,2.274,1.6,4.945,3.806,4.477,9.828,2.543,14.657,4.7a69.246,69.246,0,0,1,16.563,9.8c3.831,3.2,6.726,7.42,12.538,7.952a4.208,4.208,0,0,1,3.741,4.824c-.433,2.226-2.67,2.35-4.651,2.887-5.512,1.5-12.147-.065-16.207,5.612-.882,1.232-3.228,1.149-3.845.143-2.97-4.846-10.217-4.19-12.5-10.69-2.6-7.382-9.888-3.577-15.4-3.466-3.475,3.84-7.534,3.983-11.32.9-3.983-3.238-9.485-6-6.664-12.807,1.9-4.58-.2-7.693-3.825-10.8-1.974-1.695-7.233-2.742-3.915-7.419-.625-2.851-1.382-5.786,3.48-5.115-.282-2.436-.1-7.183-.826-6.949-5.76,1.852-8.175-4.981-13.049-4.205-1.115.178-2.875,1.748-2.853,2.643.217,8.923-6.153,14.547-10.788,21.039-1.363,1.909-2.869,4.061.108,5.562,10.6,5.345,10.036,14.263,8.348,23.621,16.405,2.432,28.4,13.258,42.1,20.841a4.373,4.373,0,0,0,3.164.556c6.6-2.643,8.627.95,10.058,6.289.765,2.854,15.291,9.656,18.073,8.853.626-.181,1.584-1.234,1.463-1.541a5.815,5.815,0,0,0-1.864-2.519c-8-5.747-11.357-14-14.3-23.77,6.492,1.614,10.743,4.33,13.3,9.295,2.111,4.1,5.334,5.1,9.1,2.552,3.479-2.353,6.748-2.057,10.539-1.065,11.429,2.992,22.958,4.913,34.877,2.558,2.605-.515,6.439-.707,6.782,3.114.309,3.436-3.218,3.119-5.634,3.663-1.382.311-2.692.916-4.062,1.291-2.266.619-4.952,1.283-4.177,4.157a5.332,5.332,0,0,0,5.793,4.061c15.933-1.533,31.535,1.525,47.281,2.8,6.338.513,12.714-.59,19.28.476,6.059.984,3.542-4.778,4.165-7.88l-.683-.777.785.677c7.461,4.465,15.094,7.271,23.088,6.626Q1257.764,515.667,1254.315,510.107Z" transform="translate(-613.302 -180.795)"/>
      <path class="cls-2" d="M628.707,564.372q-5.883,14.959-10.293,30.578c2.958,16.782,9.007,46.744,18.007,70.779l530.807.5.1-101.349Z" transform="translate(-613.302 -180.795)"/>
      <path class="cls-2" d="M1010,648.505c-1.643-2.754,1.685-1.77,2.106-2.455,2.751-4.475.905-9.835,2.426-14.637-2.491-3.978-7.441-5.809-8.066-11.832-.373-3.6-6.347-4.669-9.943-1.353-5.288,4.877-7.292,11.55-18.678,9.781-7.555-1.174-15.226,3.347-24.248-2.745-8.78-5.928-17.813-14.417-30.57-12.751-.755.1-2.186-1.083-2.493-1.942-2.007-5.606-4.761-4.288-9.079-2-7.343,3.9-14.49,7.642-23.941,2.494-2.841-1.548-14.371-8.805-16.245,5.58-7.463-7.887-17.5-8.129-25.907-11.987-3.57-1.639-8.871-5.32-13.951-2.808-5,2.474-7.433.829-9.921-3.592-2.758-4.9-5.776-7.32-9.828-.02-7.635,13.755-10.279,13.516-19.077-.214-1.771-2.764-23.931-11.506-27.063-10.624-.513.144-1.087,1.035-1.349.928-6.3-2.577-15.01,8.963-19.055-3.811-11.605,13.154-14.047,14.1-25.107,7.07-4.3-2.734-6.679-3.524-10.928-.025-1.79,1.474-9.223,5.536-8.965-.673.409-9.854-9.205-12.929-11.3-20.523-.237-.859-1.761-1.333-2.575-2.1-5.7-5.363-13.063-5.5-20.225-7.252a40.909,40.909,0,0,0-19.9.115c-3.7.849-2.673,2.8-2,4.951,2.931.8,5.992,1.307,8.747,2.49,1.861.8,2.9,2.876,1.359,4.746-1.312,1.6-2.96,1.045-4.1-.564-3.462-4.9-4.543-1.812-5.559,1.543-2.461,5.932-7.906,2.067-11.773,3.384-.14,2.434,2.848,2.769,3.692,5.056-4.636-.411-7.655-4.041-11.4-5.841q-3.486,9.766-6.359,19.8c1.546,8.616,3.827,20.214,6.827,32.583,2.848-6.821,5.967-7.877,13.939-5.95,1.1.266,2.743.969,2.884-.311.937-8.5,7.713-3.192,11.247-3.9,5.056-1.013,3.452,4.9,4.062,7.734.464,2.155-1.317,4.153,2.993,3.452,5.271-.858,6.992,5.039,5.705,6.808-3.235,4.447-.463,8.47-1.026,12.566l3.439-.07c1.819-2.335,5.063-3.368,6-6.572a4.215,4.215,0,0,1,5.034-3.293c1.585.233,3.13,1.4,1.958,2.57-2.128,2.128,3.065,6.564-2.627,7.122a4.2,4.2,0,0,0-3.52,1.834c3.144,1.33,5.174,3.8,7.023,6.461q3.35-.078,6.7-.159c6.288-.9,7.181-8.093,13.06-10.457,1.725,9.613,9.706,9.076,16.637,9.077,21.455,0,42.891.065,64.331,1.131,5.338.265,10.8-1.241,14.372-5.981.117-2.384,2-4.915-.115-7.123-7.667-8,.246-10.71,5.165-14.284a26.286,26.286,0,0,1,6.063-2.866c3.057-1.175,5.946-1.271,5.968,2.973.044,8.407,5.652,6.216,10.506,5.343,1.364-.245,2.574-1.2,3.924-1.622,8.008-2.488,10.855-.075,9.268,7.8-.434,2.151-.879,4.3-1.318,6.45,3.3.1,3.367,2.561,3.726,4.81l10.016-3.211c.687-1.372,2.023-1.53,3.355-1.7,3.817-7.77,10.837-4.38,16.618-4.263,1.373-1.979.115-3.392-.278-4.931-.353-1.379.664-1.876,1.88-2.1,4.75-.864-1.9,7.172,4.959,5.595,7.58-1.744,1.457,3.887,2.59,5.768q.2,2.342.4,4.684l6.426,1.72c-2.583-12.5,8.652-9.038,14.338-11.08a33.269,33.269,0,0,1,23.554-.033c4.41.863,5.024-2.991,6.919-5.254.465-3.561,3.081-3.736,5.655-2.912,6.689,2.141,13.312,4.391,20.443,4.777,3.155.171,3.159,2.574,3.117,4.852l.127,3.3c10.486,3.775,22.109,2.375,32.466,6.732l1.832.088,3.42,1.621,3.475-.634c3.554-1.5,6.339-5.732,11.1-2.945.169-1.322.338-2.644.52-3.972C1012.534,649.178,1010.885,649.992,1010,648.505Zm-370.931-51.75c-6.008.324-6.027-4.976-7.159-8.773-.805-2.7,2-3.308,3.832-2.233,3.812,2.234,10.867-1.631,11.856,5.039C648.362,595.959,644.611,597.914,639.067,596.755Zm5.716-12.473c-1.352-.048-3.157-.035-2.987-1.895.13-1.423,1.566-2.212,3.081-2.265a2.847,2.847,0,0,1,3,2.284C647.629,584.258,646.183,584.332,644.783,584.282Zm36.091-3.246c.353-1.594.753-3.188,2.945-3.037.364.025,1.036.646.982.83-.555,1.886-2.319,1.925-3.886,2.246l-.717.7Zm-16.223-8.584,1.114,2.782-1.526.726a10.646,10.646,0,0,1-.349-2.241C663.909,573.286,664.382,572.873,664.651,572.452Zm12.866,18.491c-1.733,6.047-6.812,2.352-10.285,3.333l-.213.209c-.144,2.641.163,6.622-3.718,5.486-2.315-.677-5.688-3.921-3.48-7.889a14.612,14.612,0,0,0,2.107-9.339c-.409-.593-.824-1.182-1.2-1.795a6.845,6.845,0,0,1,.594-.424l.743,2.1c4.808.476,10.281-1.387,13.78,3.693.564-.059,1.225-.334,1.675-.142,3.668,1.568,9.419-4.74,10.7,1.14C688.813,590.016,681.517,590.339,677.517,590.942Zm248.315,47c-1.116-.291-1.872-.745-1.212-1.6a2.707,2.707,0,0,1,2-.905c.389.024.712,1.046,1.065,1.619Z" transform="translate(-613.302 -180.795)"/>
      <path class="cls-10" d="M1282.117,578.958c.693.214,1.018,1.349,1.7,1.8a34.641,34.641,0,0,0,4.907,2.708l.662-2.846q-2.865-8.789-6.2-17.37l-3.335.051c-.284,4.905-10.114,1-7.87,7.3C1273.428,574.658,1277.476,577.52,1282.117,578.958Z" transform="translate(-613.302 -180.795)"/>
      <path class="cls-2" d="M1274.371,622.437c1.493-3.562,3.442-5.8,5.759-6.854l4.912-21.357c-9.81-3.248-20.839-2.965-29.508-9.486a9.734,9.734,0,0,0-9.027-1.256c-6.414,2.29-10.244-1.009-12.627-5.409-2.245-4.145-10.308-4.789-7.567-12.05.38-1.007-2.853-1.183-4.485-1.122-3.365.124-6.72.463-10.08.713,5.642-9.659,11.3-11.648,24.852-7.914,5.514,1.519,11.711,2.022,13.9,9.321,1.589,5.287,6.264,1.313,9.594,1.222,6.139-11.713,9.817-12.672,18.978-4.945l2.127-.033a333.125,333.125,0,0,0-20.091-41.916c-8.034.679-15.7-2.133-23.2-6.619l-.1.1c-.622,3.1,1.894,8.864-4.164,7.88-6.566-1.066-12.943.037-19.281-.476-15.746-1.274-31.348-4.332-47.281-2.8a5.332,5.332,0,0,1-5.793-4.061c-.775-2.874,1.911-3.539,4.177-4.157,1.37-.374,2.68-.979,4.062-1.291,2.417-.544,5.943-.228,5.634-3.663-.343-3.82-4.177-3.629-6.782-3.114-11.919,2.355-23.448.434-34.877-2.558-3.791-.993-7.059-1.289-10.539,1.064-3.762,2.544-6.986,1.544-9.1-2.552-2.559-4.965-6.809-7.681-13.3-9.295,2.944,9.766,6.306,18.023,14.3,23.77a5.815,5.815,0,0,1,1.864,2.519c.121.307-.837,1.36-1.463,1.541-2.783.8-17.309-6-18.074-8.853-1.431-5.339-3.457-8.932-10.058-6.289a4.375,4.375,0,0,1-3.164-.556c-13.7-7.582-25.691-18.408-42.1-20.841-1.742-.441-3.5-2.461-5.21.057.352,3.055,2.3,6.358,4.9,6.088,11.917-1.24,15.153,8.713,21.4,14.751,1.863,1.8,3.3,3.489,4.869-.153.981-2.281,2.951-3.732,5.362-2.982,1.926.6,1.775,3.067.951,4.31-1.314,1.982.106,6.465-4.569,5.571-3.048-.583-5.968.693-9.181-.428-3.84-1.34-7.89-.2-11.387,2.143-2.653,1.774-3.012,2.785-.257,5.491a93.53,93.53,0,0,0,14.873,12.189c-7.44.734-13.665-4.005-21.067-2.645-9.61,1.767-18.718-2.532-28.119-3.7-11.4-1.418-11.3-2.17-13.009,9-3.277-2.657-8.132-2.148-7.3-9.125.3-2.531-8.417-4.934-13.689-5.389-9.535-.821-18.5,2.629-27.739,4.018-4.2.632-8.321,1.8-12.526,2.4-2.637.377-5.451-.078-6.054-3.225-.667-3.483,2.472-2.912,4.514-3.485a29.892,29.892,0,0,0,7.827-3.173,32.424,32.424,0,0,0-15.448.17,3.179,3.179,0,0,0-1.4.742c3.534,11.787-10.184,7.764-13.6,13.73-1.843,3.219-7.092,5.146-12.048,1.384-2.99-2.27-7.056-1.161-10.7.077a53.183,53.183,0,0,1-25.051,2.277c-1.566,5.49-5.213,5.235-9.166,2.823-2.71-1.654-5.223-3.581-8.623-2.818-7.515,1.686-15.017,3.434-22.487,5.3-2.717.678-5.617,1.313-7.933,2.737-7.86,4.83-13.676,2.917-15.376-5.531-1.053-5.23-3.207-7.841-9.579-7.865-14.328-.053-28.393,1.609-42.43,3.951-1.644.274-4.308,1.793-4.75.578-3.338-9.168-17.136,2.972-18.916-8.889,0-.02-1.848-.124-2.278.319-2.1,2.167-3.538,1.889-5.4-.458-2.37-2.984-5.531-2.313-8.511-.739-3.191,1.685-6.326,3.472-9.486,5.214-5.484,2.833-10.759,5.173-17.586,4.39-3.724-.427-8.815.054-11.811,4.768-2.673,4.205-8.625,4.018-12.443,3.416-5.994-.945-11.791,2.313-16.444,1.253a24.826,24.826,0,0,0-5.282-.556c-.307.622-.624,1.238-.927,1.863q-6.466,13.344-11.714,27.313c5.873,2.3,12,3.54,17.037-2.179-.678-2.15-1.7-4.1,2-4.951a40.909,40.909,0,0,1,19.9-.115c7.162,1.754,14.529,1.888,20.225,7.252.814.766,2.338,1.24,2.575,2.1,2.1,7.595,11.711,10.67,11.3,20.523-.257,6.209,7.175,2.147,8.965.673,4.249-3.5,6.628-2.71,10.928.025,11.06,7.033,13.5,6.084,25.107-7.07,4.045,12.775,12.753,1.235,19.055,3.811.263.108.836-.783,1.349-.928,3.132-.882,25.292,7.86,27.063,10.624,8.8,13.73,11.443,13.97,19.077.214,4.051-7.3,7.07-4.882,9.828.02,2.488,4.421,4.918,6.067,9.921,3.592,5.08-2.512,10.381,1.17,13.951,2.808,8.407,3.858,18.445,4.1,25.907,11.987,1.875-14.385,13.4-7.128,16.245-5.58,9.451,5.149,16.6,1.4,23.941-2.494,4.318-2.292,7.072-3.609,9.079,2,.307.859,1.738,2.04,2.493,1.942,12.756-1.665,21.79,6.823,30.57,12.751,9.022,6.092,16.693,1.571,24.248,2.745,11.386,1.769,13.39-4.9,18.678-9.781,3.6-3.316,9.57-2.244,9.943,1.353.625,6.023,5.575,7.854,8.067,11.833q.709.055,1.419.1c1.035-1.45,1.4-5.136,3.161-4.015,9.175,5.819,9.3-3.31,10.066-6.624,1.933-8.355,6.344-6.333,11.091-3.657,3.624,2.044,7.488,4.308,10.027,7.413,4.755,5.816,10.416,7.093,17.348,5.447l8.1-2.078.293-1.648c.155-2.665-.833-6.118,2.486-7.244s2.305,3.261,4.046,4.1c3.479,1.674,7.2,2.88,10.814,4.28l6.993-1.109a2.6,2.6,0,0,1,1.45-.08,2.289,2.289,0,0,1,1.377-.158c4.717-5.482,10.268-6.278,17.049-3.665,3.305,1.273,6.871,2.749,10.712,2.133l1.7-1.591c4.274-4.147,24.161-4.2,28.819-1.2,3.514,2.261,6.1,8.946,12.373,4.389,6.8-5.136,13.988-9.524,22.691-10.94,8.933,3.353,14.624,11.589,23.8,14.715,4.63,1.577,9.87,2.113,13.049-.435,4.93-3.95,5.793-.3,7.816,2.213l2.164-3.347c4.978-6.509,16.221-8.612,24.7-4.216C1271.228,625.817,1272.306,627.366,1274.371,622.437ZM740.758,531.951c-.338-.146-.413-.868-.6-1.337.486-.181,1.082-.613,1.424-.47s.411.866.6,1.334C741.695,531.662,741.094,532.1,740.758,531.951Zm436.514,59.132c-1.54-.259-3.646-.847-3.716-2.822-.073-2.076,2.121-2.554,3.626-2.865,6.017-1.245,12.26.477,18.361-1.557C1190.958,590.456,1184.672,592.325,1177.272,591.084Z" transform="translate(-613.302 -180.795)"/>
      <path class="cls-4" d="M1278.028,583.563c1.839,3.567,5.792,4.546,8.783,6.676l1.612-6.928a34.354,34.354,0,0,1-4.607-2.555c-.681-.45-1.007-1.584-1.7-1.8-4.641-1.438-8.689-4.3-10.137-8.363-2.243-6.3,7.586-2.39,7.87-7.3-9.266-7.725-12.986-6.767-19.2,4.946,1.451,3.109-5.611,4.686-2.341,6.833,4.709,3.091,4.925,15.042,15.34,7.936C1275.107,582.023,1277,581.563,1278.028,583.563Z" transform="translate(-613.302 -180.795)"/>
      <path class="cls-3" d="M1286.485,594.352l.863-3.711c-3.036-2.424-7.369-3.294-9.32-7.078-1.031-2-2.922-1.54-4.375-.549-10.415,7.106-10.631-4.844-15.34-7.936-3.27-2.147,3.792-3.724,2.341-6.833-3.368.091-8.1,4.065-9.7-1.222-2.218-7.3-8.487-7.8-14.064-9.321-13.711-3.735-19.431-1.745-25.138,7.914,3.4-.251,6.793-.59,10.2-.714,1.651-.06,4.921.115,4.537,1.122-2.772,7.261,5.383,7.9,7.654,12.05,2.41,4.4,6.284,7.7,12.772,5.409a9.943,9.943,0,0,1,9.13,1.256c8.786,6.534,19.968,6.236,29.9,9.5A2.39,2.39,0,0,0,1286.485,594.352Z" transform="translate(-613.302 -180.795)"/>
      <polygon class="cls-2" points="667.456 432.059 540.832 431.94 540.782 485.421 655.157 485.529 667.456 432.059"/>
    </g>
    <g>
      <path class="cls-11" d="M832.3,675.92a18.507,18.507,0,0,1,3.243,10.39c.444,15.157-12.216,33.081-38.483,33.851a65.114,65.114,0,0,1-12.653-.821c3.385,12.529,15.343,22.188,32.8,21.677a44.71,44.71,0,0,0,7.125-.766c-1.989,2.6-6.033,10.979-19.126,11.361-14.443.424-25.467-12.6-25.6-30.7a8.064,8.064,0,0,1-1.069-1.24,177.539,177.539,0,0,1-15.916,17.939c-11.121,10.81-25.105,16.063-37.247,16.419-11.745.344-21.72-3.97-25.383-12.44A53.647,53.647,0,0,0,715.93,743.5c15.316-.448,32.365-6.825,46.025-20.41,4.4-4.338,8.567-8.511,12.346-12.354a11.48,11.48,0,0,1,1.976-8.477c1.218-1.783,2.546-2.538,3.737-2.572a3,3,0,0,1,2.854,2.537c13.9-13.67,24.744-22.963,36.77-27.286-3.027-3.009-8-4.532-14.979-4.327-22.141.648-40.46,17.865-40.114,29.688.123,4.207,2.478,5.964,7.6,7.243a16.075,16.075,0,0,1-8.568,3.031c-6.19.181-11.164-4.2-11.366-11.105-.425-14.522,22.479-32.508,52-33.372,11.19-.327,19.912,1.88,25.211,6.57,1.347-.12,2.773-.241,4.122-.28,1.587-.047,3.256-.017,4.927.094l.086,2.936A54.694,54.694,0,0,0,832.3,675.92Zm-40.687,37.251c15.712-.46,31.992-14.121,31.55-29.2a14.264,14.264,0,0,0-1.2-5.6c-16.11,5.873-26.363,19.2-37.764,33.988A25.87,25.87,0,0,0,791.608,713.171Z" transform="translate(-613.302 -180.795)"/>
      <path class="cls-11" d="M885.329,694.225,865.08,721.5c-1.377,1.788-.957,2.57.472,2.528,3.412-.1,12.642-4.978,17.747-12.354.535-.73.843-1.057,1.081-1.064.873-.025-.033,4.29-3.03,7.714-5.376,6.273-16.669,13.911-25,14.154-5.476.161-7.163-3.205-5.783-7.614-4.559,4.344-10.009,8.077-15.485,8.237-7.063.207-9.4-9.1-.772-20.945,7.79-10.633,18.63-17.463,27.555-19.154,3.952-.671,7.334.9,8.614,3.957l1.837-2.356Zm-20,3.206c-6.189.181-16.384,10.09-19.663,14.714-4.956,7.055-5.358,12.309-2.343,12.221,3.251-.175,10.858-6.2,15.458-11.89l9.482-12.51C868.213,698.3,867.153,697.377,865.328,697.431Z" transform="translate(-613.302 -180.795)"/>
      <path class="cls-11" d="M909.532,693.516l-2.369,3.167c4.9-3.479,9.986-6.17,13-6.258,7.539-.221,7.885,6.2,2.993,12.7A9.6,9.6,0,0,1,921.465,705c-4.536,5.137-8.833,10.267-9.793,12.757-.89,2.171-.359,3.981,1.862,3.917a3.547,3.547,0,0,0,.871-.105c3.312-.812,10.021-4.979,14.365-11.223.534-.729.842-1.057,1.081-1.063.873-.025-.033,4.29-3.03,7.714-5.376,6.272-13.654,13.822-21.986,14.066-7.062.206-8.48-7.536-4.937-13.994,3.317-6.054,7.407-10.145,11.534-15.666,1.144-1.622,1.282-2.342.567-2.32-2.143.063-12.322,7.748-20.343,18.626l-9.17,12.341-13.332.391L896.518,693.9Z" transform="translate(-613.302 -180.795)"/>
      <path class="cls-11" d="M964.276,694.215l1.758-2.354,13.094-.384-20.249,27.28c6.639-1.147,13.27-2.533,18.3-9.829.534-.73.843-1.057,1.08-1.064.874-.025-.033,4.29-3.03,7.714-4.913,5.782-12.91,6.653-20.778,9.187-14.892,20.372-34.692,46.686-57.23,47.346-17.855.522-22.994-20.375,4.842-29.927A135.5,135.5,0,0,0,928,730.3c-6.37-.529-8.145-9.611.1-20.893,7.787-10.711,18.627-17.542,27.555-19.154C959.611,689.508,963,691.155,964.276,694.215Zm-23.739,32.862c-11.174,8.986-24.017,15.239-38.9,22.5-14.252,6.931-17.225,16.628-5.956,16.3C909.177,765.485,929.224,742.183,940.537,727.077ZM959.2,694.6a5.705,5.705,0,0,0-1.583.2c-4.1,1.153-12.74,7.045-18.079,14.589-5.035,7.058-5.358,12.309-2.345,12.142,3.251-.175,10.859-6.2,15.458-11.891l1.531-1.951a1.715,1.715,0,0,1,.306-.405l7.489-10.068C962.089,695.471,961.029,694.549,959.2,694.6Z" transform="translate(-613.302 -180.795)"/>
      <path class="cls-11" d="M1003.647,690.76l-20.328,27.282c-1.377,1.788-.957,2.57.472,2.528,3.412-.1,12.721-4.98,17.747-12.355.534-.729.842-1.057,1.08-1.063.952-.028.047,4.287-2.951,7.711-5.375,6.273-16.669,13.911-25,14.155-7.538.221-7.962-6.121-3.072-12.7l18.961-25.178Zm3.062-9.382c-4.365.128-6.848-3.295-5.7-7.617s5.645-7.95,9.93-8.076c4.207-.123,6.69,3.3,5.625,7.621C1015.336,677.63,1010.994,681.252,1006.709,681.378Z" transform="translate(-613.302 -180.795)"/>
      <path class="cls-11" d="M1036.5,687.018c7.46-.218,7.887,6.2,2.993,12.7a13.026,13.026,0,0,1-1.692,1.876c-4.535,5.136-8.833,10.267-9.872,12.759-.89,2.171-.281,3.979,1.941,3.914a3.538,3.538,0,0,0,.87-.1c3.233-.81,10.021-4.979,14.286-11.221.534-.729.843-1.057,1.081-1.063.952-.028.046,4.287-2.952,7.711-5.376,6.273-13.653,13.822-21.985,14.066-7.063.207-8.561-7.533-4.937-13.993,3.317-6.054,7.407-10.145,11.535-15.666,1.071-1.382,1.132-2.019.5-2-2.381.069-14.052,8.353-20.945,17.054l-42.251,57.073-13.333.391,59.452-79.975,13.094-.384-4.891,6.576C1025.431,691.472,1032.214,687.144,1036.5,687.018Z" transform="translate(-613.302 -180.795)"/>
      <path class="cls-11" d="M1071.576,688.771l-20.328,27.282c-1.3,1.785-.958,2.57.471,2.528,2.936-.086,10.14-3.634,15.3-9.264l15.672-20.872,13.094-.384-20.249,27.28c-1.377,1.788-.957,2.57.471,2.528,3.413-.1,12.642-4.978,17.668-12.353.534-.73.843-1.057,1.081-1.064.952-.027.046,4.288-2.951,7.712-5.376,6.272-16.669,13.91-25,14.154-5.4.158-7.158-3.047-5.853-7.295-5.675,4.218-12.717,7.839-18.352,8-7.539.221-7.963-6.121-3.072-12.7l18.961-25.177Z" transform="translate(-613.302 -180.795)"/>
      <path class="cls-11" d="M1119.982,687.353l-2.369,3.167c4.9-3.479,9.985-6.169,13-6.258,7.539-.221,7.886,6.2,2.993,12.7a9.67,9.67,0,0,1-1.692,1.876c-4.536,5.136-8.833,10.267-9.793,12.757-.89,2.17-.36,3.981,1.861,3.916a3.54,3.54,0,0,0,.871-.1c3.313-.812,10.021-4.98,14.365-11.223.534-.73.843-1.057,1.081-1.063.873-.026-.033,4.289-3.031,7.713-5.376,6.273-13.653,13.822-21.986,14.066-7.062.207-8.48-7.535-4.937-13.993,3.317-6.054,7.407-10.145,11.535-15.667,1.144-1.621,1.281-2.341.567-2.32-2.143.063-12.323,7.748-20.344,18.626l-9.17,12.342-13.332.391,27.364-36.543Z" transform="translate(-613.302 -180.795)"/>
      <path class="cls-11" d="M1174.727,688.053l1.758-2.354,13.094-.383-20.249,27.279c6.639-1.147,13.27-2.533,18.3-9.829.534-.729.843-1.057,1.081-1.063.873-.025-.033,4.29-3.03,7.714-4.914,5.782-12.911,6.652-20.779,9.186-14.891,20.372-34.691,46.686-57.229,47.346-17.854.523-22.994-20.375,4.843-29.926a135.554,135.554,0,0,0,25.942-11.88c-6.37-.528-8.145-9.61.1-20.892,7.787-10.712,18.628-17.543,27.556-19.154C1170.062,683.346,1173.445,684.993,1174.727,688.053Zm-23.739,32.862c-11.174,8.986-24.017,15.239-38.895,22.5-14.253,6.93-17.225,16.628-5.956,16.3C1119.627,759.322,1139.675,736.02,1150.987,720.915Zm18.667-32.476a5.667,5.667,0,0,0-1.582.205c-4.1,1.153-12.74,7.045-18.079,14.588-5.035,7.058-5.358,12.31-2.346,12.142,3.253-.174,10.859-6.2,15.458-11.89l1.531-1.951a1.771,1.771,0,0,1,.307-.406l7.488-10.068C1172.539,689.309,1171.479,688.387,1169.654,688.439Z" transform="translate(-613.302 -180.795)"/>
      <path class="cls-11" d="M1237.826,683.9l-20.25,27.279c-1.376,1.788-.957,2.57.472,2.529,3.413-.1,12.643-4.979,17.748-12.355.534-.73.843-1.057,1.081-1.063.872-.026-.034,4.289-3.032,7.713-5.374,6.273-16.668,13.911-25,14.155-5.476.16-7.162-3.206-5.782-7.615-4.56,4.345-10.01,8.077-15.485,8.237-7.062.207-9.4-9.1-.771-20.945,7.789-10.633,18.63-17.462,27.555-19.154,3.952-.671,7.334.9,8.615,3.957l1.837-2.356Zm-20,3.206c-6.189.181-16.384,10.091-19.663,14.714-4.957,7.056-5.358,12.309-2.344,12.221,3.252-.175,10.859-6.2,15.458-11.89l9.483-12.51C1220.711,687.978,1219.65,687.055,1217.825,687.108Z" transform="translate(-613.302 -180.795)"/>
    </g>
    <g>
      <path class="cls-11" d="M731.491,619.129a164.3,164.3,0,0,1,23.949,7.9c10.735-20.631,29.406-44.517,50.171-61.472l7.836-.229c-45.353,38.842-59.06,90.269-44.142,99.564a18.251,18.251,0,0,1-10.849,3.813c-15.956.468-15.215-16.185-5.069-37.554-6.689-2.545-16.654-4.048-27.154-4.4-6.165,8.873-12.617,17.662-19.1,25.316-11.784,13.857-26.424,20.523-38.98,20.892s-23.216-5.464-27.033-16.407a45.123,45.123,0,0,0,15.944,2.368c15.294-.447,33.028-7.96,49.28-24.121,2.755-2.727,5.416-5.45,7.89-8.075-15.761.651-30.037,3.62-32.912,8.713-6.563-4.721-1.167-20.471,11.2-20.833a137.967,137.967,0,0,1,30.22,2.611c18.543-21.8,27.039-38.211,38.342-45.912-23.514,3.713-38.9,13.9-38.625,23.337.053,1.795.8,4.7,5.956,6.534a18.508,18.508,0,0,1-9.169,3.1c-6.7.2-11.285-4.584-11.454-10.342-.481-16.428,39.663-26.675,68.364-27.516l.1,3.493C764.077,570.267,748.708,593.961,731.491,619.129Z" transform="translate(-613.302 -180.795)"/>
      <path class="cls-11" d="M818.094,601.474l-24.185,32.457c-1.639,2.127-1.139,3.057.56,3.007,4.06-.118,15.135-5.924,21.114-14.7.636-.869,1-1.257,1.286-1.266,1.133-.033.055,5.1-3.511,9.175-6.4,7.462-19.831,16.549-29.744,16.84-8.969.262-9.474-7.282-3.655-15.107l22.557-29.952Zm3.641-11.163c-5.192.151-8.146-3.919-6.785-9.062s6.716-9.456,11.813-9.605c5-.146,7.958,3.924,6.691,9.063C832,585.853,826.833,590.161,821.735,590.311Z" transform="translate(-613.302 -180.795)"/>
      <path class="cls-11" d="M846.889,600.63,844.07,604.4c5.832-4.141,11.88-7.341,15.468-7.446,8.969-.263,9.381,7.379,3.56,15.109a11.481,11.481,0,0,1-2.013,2.232c-5.4,6.11-10.509,12.213-11.65,15.175-1.059,2.583-.429,4.737,2.215,4.66a4.308,4.308,0,0,0,1.036-.124c3.94-.966,11.921-5.925,17.09-13.352.636-.869,1-1.257,1.285-1.266,1.039-.03-.039,5.1-3.6,9.177-6.4,7.463-16.243,16.445-26.157,16.735-8.4.246-10.09-8.965-5.874-16.648,3.946-7.2,8.812-12.069,13.722-18.639,1.361-1.93,1.525-2.784.675-2.76-2.549.074-14.66,9.216-24.2,22.159l-10.909,14.681-15.861.465,32.555-43.475Z" transform="translate(-613.302 -180.795)"/>
      <path class="cls-11" d="M888.521,634.846a19.351,19.351,0,0,0,3.31.093c9.724-.285,20.039-6.258,27.226-15.729.544-.772,1-1.163,1.289-1.171,1.039-.03.488,3.765-3.608,9.083-4.832,6-18.59,16.985-33.507,17.422a28.209,28.209,0,0,1-3.973-.166c-26.254-2.729-6.4-47.531,26.835-48.412,23.508-.688,10.9,26.989-23.789,26.588C879.206,629.731,882.262,634.084,888.521,634.846Zm-3.435-17.286c22.978-2.657,23.229-16.65,18.32-16.507C897.27,601.232,888.257,612.931,885.086,617.56Z" transform="translate(-613.302 -180.795)"/>
      <path class="cls-11" d="M951.213,617.041c1.039-.03-.039,5.1-3.6,9.177-6.4,7.462-16.433,16.45-26.346,16.74-10.291.3-14.1-10.549-2.852-23.162.822-.969,1.555-1.746,2.38-2.62a29.32,29.32,0,0,0,6.133-16.434c-3.345-4.531-3.334-10.579.36-13.522a4.818,4.818,0,0,1,2.985-1.315c2.644-.077,4.711,2.79,4.669,7.8-.011,2.835-.053,4.632.546,5.748.894,1.485,2.693,1.622,4.067,3.377,4.42,5.729-.524,11.165-7.594,18.175-6.979,6.915-7.019,12.018-2.487,11.885,6.326-.185,17.1-9.761,20.456-14.583C950.563,617.438,950.93,617.049,951.213,617.041Zm-23.188-4.519c3.171-1.417,6.168-5.567,6.132-6.794-.033-1.134-1.48-2.13-3.19-2.459A56.682,56.682,0,0,1,928.025,612.522Z" transform="translate(-613.302 -180.795)"/>
      <path class="cls-11" d="M1009.65,595.864l-24.09,32.454c-1.639,2.127-1.139,3.058.561,3.008,4.06-.119,15.04-5.922,21.113-14.7.637-.869,1-1.257,1.286-1.265,1.039-.031-.04,5.1-3.605,9.177-6.4,7.462-19.831,16.549-29.744,16.84-6.515.19-8.521-3.814-6.88-9.059-5.424,5.166-11.908,9.608-18.422,9.8-8.4.246-11.185-10.822-.919-24.919,9.268-12.65,22.164-20.776,32.782-22.788,4.7-.8,8.726,1.067,10.249,4.708l2.186-2.8Zm-23.795,3.814c-7.364.216-19.492,12-23.394,17.5-5.9,8.395-6.375,14.645-2.787,14.539,3.868-.208,12.917-7.37,18.389-14.145l11.281-14.883C989.288,600.712,988.027,599.615,985.855,599.679Z" transform="translate(-613.302 -180.795)"/>
      <path class="cls-11" d="M1038.445,595.021l-2.819,3.769c5.832-4.141,11.88-7.341,15.468-7.446,8.969-.263,9.382,7.379,3.561,15.109a11.479,11.479,0,0,1-2.013,2.232c-5.4,6.11-10.51,12.214-11.65,15.175-1.059,2.583-.429,4.737,2.215,4.66a4.246,4.246,0,0,0,1.035-.124c3.94-.966,11.922-5.924,17.091-13.352.636-.869,1-1.257,1.286-1.265,1.038-.031-.04,5.1-3.606,9.177-6.4,7.462-16.243,16.444-26.156,16.734-8.4.246-10.09-8.965-5.874-16.648,3.947-7.2,8.813-12.069,13.724-18.639,1.359-1.93,1.523-2.784.674-2.76-2.549.075-14.659,9.216-24.2,22.159l-10.909,14.681-15.861.465,32.556-43.474Z" transform="translate(-613.302 -180.795)"/>
      <path class="cls-11" d="M1103.574,595.854l2.091-2.8,15.578-.456-24.09,32.454c7.9-1.365,15.786-3.014,21.769-11.693.636-.869,1-1.257,1.286-1.265,1.038-.03-.04,5.1-3.606,9.177-5.846,6.88-15.359,7.913-24.72,10.928-17.716,24.237-41.273,55.542-68.086,56.327-21.243.622-27.356-24.239,5.761-35.6a161.244,161.244,0,0,0,30.863-14.133c-7.578-.628-9.689-11.433.122-24.854,9.266-12.745,22.162-20.87,32.783-22.788C1098.024,590.253,1102.05,592.213,1103.574,595.854Zm-28.242,39.1c-13.294,10.69-28.572,18.13-46.273,26.774-16.956,8.245-20.492,19.782-7.086,19.39C1038.022,680.644,1061.873,652.919,1075.332,634.949Zm22.208-38.635a6.76,6.76,0,0,0-1.883.244c-4.874,1.37-15.157,8.38-21.508,17.354-5.991,8.4-6.375,14.645-2.79,14.444,3.868-.207,12.919-7.37,18.39-14.145l1.821-2.321a2.072,2.072,0,0,1,.364-.483l8.909-11.978C1100.972,597.347,1099.712,596.251,1097.54,596.314Z" transform="translate(-613.302 -180.795)"/>
      <path class="cls-11" d="M1150.414,591.742,1126.23,624.2c-1.64,2.127-1.14,3.058.561,3.008,4.06-.119,15.134-5.925,21.113-14.7.636-.869,1-1.257,1.286-1.265,1.133-.033.054,5.1-3.512,9.174-6.4,7.462-19.831,16.549-29.744,16.84-8.969.263-9.474-7.282-3.655-15.107l22.558-29.952Zm3.642-11.163c-5.192.152-8.146-3.918-6.785-9.062s6.716-9.456,11.813-9.605c5-.146,7.958,3.924,6.691,9.063C1164.319,576.122,1159.154,580.43,1154.056,580.579Z" transform="translate(-613.302 -180.795)"/>
    </g>
  </g>
</svg>
